<svg xmlns="http://www.w3.org/2000/svg" xmlns:xlink="http://www.w3.org/1999/xlink" contentStyleType="text/css" data-diagram-type="DESCRIPTION" height="563px" preserveAspectRatio="none" style="width:1314px;height:563px;background:#FFFFFF;" version="1.1" viewBox="0 0 1314 563" width="1314px" zoomAndPan="magnify"><?plantuml 1.2026.6?><defs/><g><g class="title" data-source-line="1"><text fill="#000000" font-family="sans-serif" font-size="14" font-weight="700" lengthAdjust="spacing" textLength="478.0781" x="414.4698" y="22.9951">KOYASH &#8212; Deployment Diagram (deployment view, MVP v2)</text></g><!--cluster railway--><g class="cluster" data-qualified-name="railway" data-source-line="10" id="ent0003"><path d="M596.8415,66.1637 C602.9232,56.0316 613.0006,54.8271 620.6295,64.285 C626.8215,52.8943 637.9494,48.4318 646.9518,61.2262 C654.4151,51.0999 664.0162,48.4223 671.598,61.0982 C678.6371,47.8263 690.6535,49.4593 698.5045,60.188 C702.987,48.6744 712.6583,44.7696 722.2161,54.5316 C732.7788,43.2969 743.3737,46.0644 748.7266,60.0156 C758.0634,49.9765 767.5605,50.5794 775.1616,62.1399 C781.3377,50.3492 791.5436,51.6086 797.7598,62.0992 C807.5112,52.0543 818.8345,53.996 825.1303,66.3262 C836.0561,53.5184 847.7111,57.1928 854.49,70.9154 C855.3621,71.4824 855.6935,72.2881 854.6313,72.9871 C867.1371,79.6282 868.1267,86.4662 856.6363,95.2667 C870.7375,101.6372 869.2731,110.2565 859.9591,119.7987 C869.5514,125.1235 869.8486,133.9048 860.1237,139.3918 C871.6526,146.7103 871.2332,157.5281 860.7297,165.3608 C870.8809,171.0997 869.5163,179.8781 860.9746,185.8406 C873.9387,192.6685 875.7203,201.1316 863.6722,210.6763 C872.8286,215.6697 873.9677,225.2216 864.3752,230.8676 C873.6265,237.5595 874.9338,246.9582 863.6011,252.9278 C873.6172,261.4426 874.1607,273.9439 859.7373,278.8104 C869.7608,284.794 868.7179,292.2566 860.2885,298.7503 C871.1676,305.596 874.2045,316.7009 861.017,324.2346 C870.9806,332.1839 868.2104,341.209 858.3079,346.7701 C867.5914,353.5446 865.6097,361.8018 855.5456,365.7622 C866.688,377.7316 862.6216,390.2059 847.49,394.9154 C848.6415,393.3455 850.3233,393.3075 851.1782,395.2287 C844.4226,408.5823 833.1812,409.7522 823.2531,398.8868 C814.7453,408.0655 804.9996,409.3944 799.2551,395.955 C792.1625,409.8635 783.6709,408.1218 774.1107,398.6036 C768.0226,408.1964 756.4586,410.6582 750.5394,398.4213 C741.4392,412.4945 732.4691,410.8188 723.0961,398.7073 C717.3781,412.3286 705.7379,411.9166 698.2263,400.488 C687.6276,411.4793 679.229,412.8788 671.6096,397.4828 C664.1546,407.0649 655.8969,409.7092 648.2132,397.731 C640.2052,409.4272 629.8509,411.3499 622.3585,397.2148 C608.9918,408.7007 592.9968,407.0452 587.89,387.9154 C589.4735,387.4421 590.6134,387.7267 590.527,389.7088 C578.3581,383.8888 575.8176,374.8438 587.878,366.2839 C577.0476,360.3115 576.5898,351.2144 587.4306,344.7909 C578.2317,339.1184 576.8466,330.6178 586.5858,324.1695 C575.0527,318.2996 575.0013,307.5421 584.3914,299.7889 C570.1715,293.9569 570.25,285.9056 579.9141,275.6446 C567.2282,269.7149 566.6056,260.0242 578.6875,252.7665 C567.1133,247.7418 568.621,238.6148 577.0646,232.0239 C566.6225,222.7103 568.165,214.2404 579.7454,207.3163 C571.4427,199.1178 570.3374,192.6267 581.9894,186.5885 C570.9931,178.926 572.2075,170.458 583.6757,164.5113 C574.2278,156.9064 574.7849,147.3853 586.2522,142.195 C576.6405,134.3397 575.0418,125.9873 586.4246,118.2834 C575.1278,107.9533 576.4169,100.5712 590.3604,94.4005 C575.9193,83.4473 580.2539,70.5481 594.89,63.9154 C596.4217,63.5824 597.4009,64.6818 596.8415,66.1637" fill="none" style="stroke:#181818;stroke-width:1;"/><text fill="#000000" font-family="sans-serif" font-size="14" font-weight="700" lengthAdjust="spacing" textLength="134.3672" x="654.0064" y="81.9105">Railway platform</text></g><!--cluster fenode--><g class="cluster" data-qualified-name="railway.fenode" data-source-line="11" id="ent0004"><polygon fill="none" points="604.47,108.9154,614.47,98.9154,837.91,98.9154,837.91,216.9154,827.91,226.9154,604.47,226.9154,604.47,108.9154" style="stroke:#181818;stroke-width:1;stroke-linejoin:miter;stroke-miterlimit:10;"/><line style="stroke:#181818;stroke-width:1;" x1="827.91" x2="837.91" y1="108.9154" y2="98.9154"/><line style="stroke:#181818;stroke-width:1;" x1="604.47" x2="827.91" y1="108.9154" y2="108.9154"/><line style="stroke:#181818;stroke-width:1;" x1="827.91" x2="827.91" y1="108.9154" y2="226.9154"/><text fill="#000000" font-family="sans-serif" font-size="14" font-weight="700" lengthAdjust="spacing" textLength="133.5537" x="650.4131" y="124.9105">Frontend service</text></g><!--cluster benode--><g class="cluster" data-qualified-name="railway.benode" data-source-line="14" id="ent0006"><polygon fill="none" points="603.89,260.9154,613.89,250.9154,838.49,250.9154,838.49,368.9154,828.49,378.9154,603.89,378.9154,603.89,260.9154" style="stroke:#181818;stroke-width:1;stroke-linejoin:miter;stroke-miterlimit:10;"/><line style="stroke:#181818;stroke-width:1;" x1="828.49" x2="838.49" y1="260.9154" y2="250.9154"/><line style="stroke:#181818;stroke-width:1;" x1="603.89" x2="828.49" y1="260.9154" y2="260.9154"/><line style="stroke:#181818;stroke-width:1;" x1="828.49" x2="828.49" y1="260.9154" y2="378.9154"/><text fill="#000000" font-family="sans-serif" font-size="14" font-weight="700" lengthAdjust="spacing" textLength="128.5361" x="652.9219" y="276.9105">Backend service</text></g><!--cluster atlas--><g class="cluster" data-qualified-name="atlas" data-source-line="19" id="ent0008"><path d="M1118.7088,393.156 C1122.5859,386.4535 1126.4367,387.849 1130.8557,392.5803 C1135.7956,385.7731 1140.8769,386.0946 1145.0097,393.3905 C1147.7588,387.4952 1151.8052,386.7886 1156.2762,391.5742 C1160.106,385.2233 1165.9468,384.7176 1169.415,391.9247 C1173.1178,383.7474 1179.6405,384.6675 1183.9792,391.2993 C1187.5448,385.0712 1192.5707,385.2863 1195.6463,391.7497 C1199.2362,385.3463 1203.5147,385.3255 1207.9605,390.8673 C1212.0308,385.0941 1217.1568,384.1408 1221.0684,391.0317 C1225.3949,384.8026 1230.1794,385.8617 1234.0346,391.5448 C1238.9451,383.9962 1244.2452,384.01 1248.5481,392.1084 C1252.9167,386.0739 1258.7178,386.505 1261.6186,393.5727 C1268.8829,387.7133 1278.2793,388.6622 1279.46,399.9154 C1280.3769,399.5082 1281.116,399.9323 1281.0981,400.973 C1286.4365,404.9221 1286.6794,410.1754 1280.115,413.1647 C1285.9371,415.6294 1288.0182,421.6553 1282.4163,426.1453 C1287.4808,429.4382 1287.0045,434.2726 1282.0455,437.2302 C1289.205,440.945 1288.0273,447.2339 1281.6931,450.5928 C1287.8396,454.0587 1287.6912,459.0838 1281.4757,462.3205 C1286.8204,465.9466 1287.5602,470.1249 1282.5106,474.6253 C1287.2699,479.5231 1288.3057,484.1469 1280.8623,487.48 C1288.1896,497.692 1282.6448,503.6848 1272.46,505.9154 C1273.3155,506.2886 1273.6152,506.8507 1272.8749,507.6137 C1269.6017,513.2868 1263.5319,514.9214 1259.821,508.07 C1257.9138,513.8708 1252.5258,514.9177 1248.7192,510.0458 C1245.2524,516.5701 1240.8454,517.7059 1235.6822,511.8293 C1231.6461,519.0695 1224.904,517.7076 1221.0942,511.5823 C1218.1679,517.5 1212.0728,517.265 1208.4713,512.3705 C1205.478,518.0847 1201.639,519.2068 1197.1544,513.9022 C1192.4965,520.3392 1188.0729,520.013 1184.125,513.2038 C1179.4892,519.9966 1172.9803,520.7329 1169.261,512.3085 C1165.6517,516.3722 1161.1398,516.2978 1158.4545,511.2165 C1152.3269,516.9591 1148.0364,516.9145 1144.692,508.5091 C1140.2269,513.7031 1135.1681,515.4147 1131.305,507.876 C1121.3496,515.706 1112.3179,509.8225 1110.39,498.9154 C1111.7173,499.0704 1112.142,499.9667 1111.5793,501.1346 C1105.261,497.9982 1102.9356,492.4837 1109.2566,487.2352 C1103.7195,484.2075 1103.0941,478.9742 1109.1798,475.868 C1102.0794,472.5947 1101.7018,468.5746 1107.6628,463.6762 C1099.7289,461.1902 1098.8873,454.8533 1105.4747,450.0376 C1100.0238,445.2497 1101.2605,440.7196 1107.9942,438.6205 C1103.1775,433.3525 1102.6441,429.2471 1110.1324,426.0767 C1104.7614,422.5475 1103.6579,417.5836 1109.8127,413.7553 C1102.0917,404.2481 1105.5807,395.3214 1117.39,392.9154 C1117.9403,392.2716 1118.407,392.4375 1118.7088,393.156" fill="none" style="stroke:#181818;stroke-width:1;"/><text fill="#000000" font-family="sans-serif" font-size="14" font-weight="700" lengthAdjust="spacing" textLength="120.4287" x="1134.7106" y="410.9105">MongoDB Atlas</text><text fill="#000000" font-family="sans-serif" font-size="14" font-weight="700" lengthAdjust="spacing" textLength="120.5654" x="1134.6423" y="427.2074">managed cloud</text></g><!--cluster dev--><g class="cluster" data-qualified-name="dev" data-source-line="25" id="ent0011"><polygon fill="none" points="607.69,436.9154,617.69,426.9154,835.69,426.9154,835.69,528.9154,825.69,538.9154,607.69,538.9154,607.69,436.9154" style="stroke:#181818;stroke-width:1;stroke-linejoin:miter;stroke-miterlimit:10;"/><line style="stroke:#181818;stroke-width:1;" x1="825.69" x2="835.69" y1="436.9154" y2="426.9154"/><line style="stroke:#181818;stroke-width:1;" x1="607.69" x2="825.69" y1="436.9154" y2="436.9154"/><line style="stroke:#181818;stroke-width:1;" x1="825.69" x2="825.69" y1="436.9154" y2="538.9154"/><text fill="#000000" font-family="sans-serif" font-size="14" font-weight="700" lengthAdjust="spacing" textLength="152.0107" x="641.6846" y="452.9105">Developer machine</text><text fill="#000000" font-family="sans-serif" font-size="14" font-weight="700" lengthAdjust="spacing" textLength="130.5391" x="652.4205" y="469.2074">(offline, one-off)</text></g><!--entity feart--><g class="entity" data-qualified-name="railway.fenode.feart" data-source-line="12" id="ent0005"><rect fill="#F1F1F1" height="71.8906" rx="2.5" ry="2.5" style="stroke:#181818;stroke-width:0.5;" width="201.4385" x="620.47" y="138.9654"/><polygon fill="#F1F1F1" points="804.9085,143.9654,804.9085,157.9654,816.9085,157.9654,816.9085,149.9654,810.9085,143.9654,804.9085,143.9654" style="stroke:#181818;stroke-width:0.5;stroke-linejoin:miter;stroke-miterlimit:10;"/><line style="stroke:#181818;stroke-width:0.5;" x1="810.9085" x2="810.9085" y1="143.9654" y2="149.9654"/><line style="stroke:#181818;stroke-width:0.5;" x1="816.9085" x2="810.9085" y1="149.9654" y2="149.9654"/><text fill="#000000" font-family="sans-serif" font-size="14" lengthAdjust="spacing" textLength="170.0713" x="630.47" y="164.9605">React + Vite static build</text><text fill="#000000" font-family="sans-serif" font-size="14" lengthAdjust="spacing" textLength="163.3242" x="630.47" y="181.2574">served via vite preview</text><text fill="#000000" font-family="sans-serif" font-size="14" lengthAdjust="spacing" textLength="171.4385" x="630.47" y="197.5542">(host 0.0.0.0, PORT env)</text></g><!--entity beart--><g class="entity" data-qualified-name="railway.benode.beart" data-source-line="15" id="ent0007"><rect fill="#F1F1F1" height="71.8906" rx="2.5" ry="2.5" style="stroke:#181818;stroke-width:0.5;" width="202.5938" x="619.89" y="290.9654"/><polygon fill="#F1F1F1" points="805.4838,295.9654,805.4838,309.9654,817.4838,309.9654,817.4838,301.9654,811.4838,295.9654,805.4838,295.9654" style="stroke:#181818;stroke-width:0.5;stroke-linejoin:miter;stroke-miterlimit:10;"/><line style="stroke:#181818;stroke-width:0.5;" x1="811.4838" x2="811.4838" y1="295.9654" y2="301.9654"/><line style="stroke:#181818;stroke-width:0.5;" x1="817.4838" x2="811.4838" y1="301.9654" y2="301.9654"/><text fill="#000000" font-family="sans-serif" font-size="14" lengthAdjust="spacing" textLength="82.3662" x="629.89" y="316.9605">FastAPI app</text><text fill="#000000" font-family="sans-serif" font-size="14" lengthAdjust="spacing" textLength="172.5938" x="629.89" y="333.2574">Docker python:3.12-slim</text><text fill="#000000" font-family="sans-serif" font-size="14" lengthAdjust="spacing" textLength="130.1768" x="629.89" y="349.5542">Uvicorn, PORT env</text></g><!--entity db--><g class="entity" data-qualified-name="atlas.db" data-source-line="20" id="ent0009"><path d="M1118.39,446.1154 C1118.39,436.1154 1194.9242,436.1154 1194.9242,436.1154 C1194.9242,436.1154 1271.4584,436.1154 1271.4584,446.1154 L1271.4584,487.7091 C1271.4584,497.7091 1194.9242,497.7091 1194.9242,497.7091 C1194.9242,497.7091 1118.39,497.7091 1118.39,487.7091 L1118.39,446.1154" fill="#F1F1F1" style="stroke:#181818;stroke-width:0.5;"/><path d="M1118.39,446.1154 C1118.39,456.1154 1194.9242,456.1154 1194.9242,456.1154 C1194.9242,456.1154 1271.4584,456.1154 1271.4584,446.1154" fill="none" style="stroke:#181818;stroke-width:0.5;"/><text fill="#000000" font-family="sans-serif" font-size="14" lengthAdjust="spacing" textLength="119.0615" x="1128.39" y="473.1105">koyash database</text><text fill="#000000" font-family="sans-serif" font-size="14" lengthAdjust="spacing" textLength="133.0684" x="1128.39" y="489.4074">products collection</text></g><!--entity seed--><g class="entity" data-qualified-name="dev.seed" data-source-line="26" id="ent0012"><rect fill="#F1F1F1" height="39.2969" rx="2.5" ry="2.5" style="stroke:#181818;stroke-width:0.5;" width="141.1045" x="650.64" y="483.2654"/><polygon fill="#F1F1F1" points="774.7445,488.2654,774.7445,502.2654,786.7445,502.2654,786.7445,494.2654,780.7445,488.2654,774.7445,488.2654" style="stroke:#181818;stroke-width:0.5;stroke-linejoin:miter;stroke-miterlimit:10;"/><line style="stroke:#181818;stroke-width:0.5;" x1="780.7445" x2="780.7445" y1="488.2654" y2="494.2654"/><line style="stroke:#181818;stroke-width:0.5;" x1="786.7445" x2="780.7445" y1="494.2654" y2="494.2654"/><text fill="#000000" font-family="sans-serif" font-size="14" lengthAdjust="spacing" textLength="111.1045" x="660.64" y="509.2605">db/ seed scripts</text></g><!--entity user--><g class="entity" data-qualified-name="user" data-source-line="6" id="ent0001"><ellipse cx="44.5854" cy="213.1154" fill="#F1F1F1" rx="8" ry="8" style="stroke:#181818;stroke-width:0.5;"/><path d="M44.5854,221.1154 L44.5854,248.1154 M31.5854,229.1154 L57.5854,229.1154 M44.5854,248.1154 L31.5854,263.1154 M44.5854,248.1154 L57.5854,263.1154" fill="none" style="stroke:#181818;stroke-width:0.5;"/><text fill="#000000" font-family="sans-serif" font-size="14" lengthAdjust="spacing" textLength="77.1709" x="6" y="277.6105">Customer /</text><text fill="#000000" font-family="sans-serif" font-size="14" lengthAdjust="spacing" textLength="61.3594" x="6" y="293.9074">end user</text></g><!--entity device--><g class="entity" data-qualified-name="device" data-source-line="8" id="ent0002"><polygon fill="#F1F1F1" points="144.17,229.6154,154.17,219.6154,273.8917,219.6154,273.8917,272.2091,263.8917,282.2091,144.17,282.2091,144.17,229.6154" style="stroke:#181818;stroke-width:0.5;stroke-linejoin:miter;stroke-miterlimit:10;"/><line style="stroke:#181818;stroke-width:0.5;" x1="263.8917" x2="273.8917" y1="229.6154" y2="219.6154"/><line style="stroke:#181818;stroke-width:0.5;" x1="144.17" x2="263.8917" y1="229.6154" y2="229.6154"/><line style="stroke:#181818;stroke-width:0.5;" x1="263.8917" x2="263.8917" y1="229.6154" y2="282.2091"/><text fill="#000000" font-family="sans-serif" font-size="14" lengthAdjust="spacing" textLength="82.3457" x="159.17" y="252.6105">User device</text><text fill="#000000" font-family="sans-serif" font-size="14" lengthAdjust="spacing" textLength="89.7217" x="159.17" y="268.9074">web browser</text></g><!--entity llm--><g class="entity" data-qualified-name="llm" data-source-line="23" id="ent0010"><path d="M1108.3568,296.0524 C1112.0885,289.2966 1117.1614,290.2391 1121.008,295.9356 C1123.9993,289.211 1130.5521,289.4023 1134.7396,294.5524 C1138.2081,289.1526 1142.4625,287.8415 1146.8769,293.5158 C1150.6465,288.5073 1155.7751,287.52 1159.4354,293.639 C1162.0508,288.497 1166.9689,287.3129 1170.9275,292.0815 C1174.3415,284.7268 1180.3737,284.5212 1184.7293,291.1523 C1187.1328,285.2234 1192.3677,286.1358 1195.4456,290.4465 C1199.2129,284.6664 1203.6857,284.6935 1207.5166,290.3795 C1212.7788,284.7346 1219.3124,286.3992 1222.2456,293.1475 C1225.8457,288.077 1230.3416,287.7361 1233.6434,293.4624 C1237.0554,287.7934 1243.0252,287.4877 1246.6882,293.174 C1251.2124,288.8206 1256.0407,289.9367 1258.6654,295.4741 C1262.7942,289.2758 1269.0901,290.3793 1272.0381,296.7323 C1274.9889,290.5387 1279.6984,290.1844 1283.8228,295.5341 C1291.2901,299.6023 1294.1865,304.7037 1286.5799,311.3927 C1296.6723,314.0375 1299.0178,321.9392 1290.8739,329.0251 C1297.1711,335.1421 1294.0006,341.3768 1286.5421,343.3277 C1294.4528,349.9783 1291.5489,354.7786 1284.3663,359.3839 C1280.9628,367.3586 1275.0512,366.3392 1270.2895,360.7986 C1266.1394,366.9348 1259.8962,366.0946 1257.4687,359.1148 C1254.5134,364.3195 1250.4526,364.8232 1246.9361,359.6865 C1243.0957,366.508 1236.2717,365.3857 1232.5401,359.5627 C1229.0976,364.5009 1224.7319,365.2031 1220.9288,359.9744 C1217.496,366.0409 1212.4185,366.4429 1208.6065,360.3589 C1204.6784,366.0288 1199.6316,366.2087 1195.6874,360.377 C1192.0946,366.6002 1187.84,367.2965 1183.6687,360.9292 C1180.3731,368.4129 1173.7718,367.2786 1170.112,361.2958 C1167.0497,367.1807 1161.5188,366.9551 1158.1834,361.5852 C1154.2051,366.3692 1148.5114,366.8875 1145.5838,360.4097 C1141.7935,365.1537 1138.0899,364.8533 1134.5888,360.0757 C1130.8491,367.1521 1124.2893,366.0428 1121.3294,359.3261 C1116.7065,364.9315 1112.5437,364.1846 1108.6796,358.4776 C1099.7737,355.9703 1098.5955,349.7304 1104.0569,342.9468 C1096.2445,339.3131 1094.2106,333.9007 1100.1858,326.9339 C1095.4203,321.5038 1095.6651,315.0239 1103.719,312.798 C1098.2086,305.8613 1099.5243,299.0168 1108.3568,296.0524" fill="#F1F1F1" style="stroke:#181818;stroke-width:0.5;"/><text fill="#000000" font-family="sans-serif" font-size="14" lengthAdjust="spacing" textLength="90.7676" x="1114.49" y="315.4605">LLM provider</text><text fill="#000000" font-family="sans-serif" font-size="14" lengthAdjust="spacing" textLength="160.8838" x="1114.49" y="331.7574">OpenAI-compatible API</text><text fill="#000000" font-family="sans-serif" font-size="14" lengthAdjust="spacing" textLength="158.9014" x="1114.49" y="348.0542">gpt-4o-mini  &#171;MVP v2&#187;</text></g><!--link user to device--><g class="link" data-entity-1="ent0001" data-entity-2="ent0002" data-link-type="dependency" data-source-line="29" id="lnk13"><path d="M83.26,250.9154 C101.26,250.9154 118.3,250.9154 138.83,250.9154" fill="none" id="user-to-device" style="stroke:#181818;stroke-width:1;"/><polygon fill="#181818" points="143.83,250.9154,134.83,246.9154,138.83,250.9154,134.83,254.9154,143.83,250.9154" style="stroke:#181818;stroke-width:1;stroke-linejoin:miter;stroke-miterlimit:10;"/></g><!--link device to feart--><g class="link" data-entity-1="ent0002" data-entity-2="ent0005" data-link-type="dependency" data-source-line="30" id="lnk14"><path d="M274.39,241.3254 C361.44,228.3554 512.6545,205.8319 615.1145,190.5719" fill="none" id="device-to-feart" style="stroke:#181818;stroke-width:1;"/><polygon fill="#181818" points="620.06,189.8354,610.5689,187.2048,615.1145,190.5719,611.7474,195.1175,620.06,189.8354" style="stroke:#181818;stroke-width:1;stroke-linejoin:miter;stroke-miterlimit:10;"/><text fill="#000000" font-family="sans-serif" font-size="13" lengthAdjust="spacing" textLength="41.7485" x="413.4659" y="180.5623">HTTPS</text><text fill="#000000" font-family="sans-serif" font-size="13" lengthAdjust="spacing" textLength="56.9004" x="405.89" y="195.6951">load SPA</text></g><!--link device to beart--><g class="link" data-entity-1="ent0002" data-entity-2="ent0007" data-link-type="dependency" data-source-line="31" id="lnk15"><path d="M274.39,269.3154 C284.22,271.7554 294.29,274.0554 303.89,275.9154 C410.77,296.5954 529.8122,310.0451 614.5022,318.0451" fill="none" id="device-to-beart" style="stroke:#181818;stroke-width:1;"/><polygon fill="#181818" points="619.48,318.5154,610.8961,313.6867,614.5022,318.0451,610.1437,321.6512,619.48,318.5154" style="stroke:#181818;stroke-width:1;stroke-linejoin:miter;stroke-miterlimit:10;"/><text fill="#000000" font-family="sans-serif" font-size="13" lengthAdjust="spacing" textLength="41.7485" x="413.162" y="256.9823">HTTPS</text><text fill="#000000" font-family="sans-serif" font-size="13" lengthAdjust="spacing" textLength="258.2925" x="304.89" y="272.1151">fetch POST /recommend, GET /products</text></g><!--link beart to db--><g class="link" data-entity-1="ent0007" data-entity-2="ent0009" data-link-type="dependency" data-source-line="32" id="lnk16"><path d="M822.81,356.7754 C911.3,383.0354 1033.3367,419.2525 1113.4467,443.0325" fill="none" id="beart-to-db" style="stroke:#181818;stroke-width:1;"/><polygon fill="#181818" points="1118.24,444.4554,1110.7504,438.0596,1113.4467,443.0325,1108.4738,445.7289,1118.24,444.4554" style="stroke:#181818;stroke-width:1;stroke-linejoin:miter;stroke-miterlimit:10;"/><text fill="#000000" font-family="sans-serif" font-size="13" lengthAdjust="spacing" textLength="189.4204" x="879.49" y="357.2623">MongoDB wire protocol (TLS)</text><text fill="#000000" font-family="sans-serif" font-size="13" lengthAdjust="spacing" textLength="157.3711" x="895.5147" y="372.3951">mongodb+srv via Motor</text></g><!--link beart to llm--><g class="link" data-entity-1="ent0007" data-entity-2="ent0010" data-link-type="dependency" data-source-line="33" id="lnk17"><path d="M822.81,326.9154 C904.53,326.9154 1013.96,326.9154 1094.09,326.9154" fill="none" id="beart-to-llm" style="stroke:#181818;stroke-width:1;"/><polygon fill="#181818" points="1099.09,326.9154,1090.09,322.9154,1094.09,326.9154,1090.09,330.9154,1099.09,326.9154" style="stroke:#181818;stroke-width:1;stroke-linejoin:miter;stroke-miterlimit:10;"/><text fill="#000000" font-family="sans-serif" font-size="13" lengthAdjust="spacing" textLength="79.3203" x="934.7647" y="307.9823">HTTPS REST</text><text fill="#000000" font-family="sans-serif" font-size="13" lengthAdjust="spacing" textLength="182.8696" x="882.99" y="323.1151">API key from env  &#171;MVP v2&#187;</text></g><!--link seed to db--><g class="link" data-entity-1="ent0012" data-entity-2="ent0009" data-link-type="dependency" data-source-line="34" id="lnk18"><path d="M792.13,499.9154 C862.33,496.6054 973.53,490.5954 1069.49,481.9154 C1085.2,480.4954 1097.0242,479.2589 1113.0242,477.3789" fill="none" id="seed-to-db" style="stroke:#181818;stroke-width:1;"/><polygon fill="#181818" points="1117.99,476.7954,1108.5847,473.873,1113.0242,477.3789,1109.5183,481.8183,1117.99,476.7954" style="stroke:#181818;stroke-width:1;stroke-linejoin:miter;stroke-miterlimit:10;"/><text fill="#000000" font-family="sans-serif" font-size="13" lengthAdjust="spacing" textLength="87.623" x="930.49" y="462.9823">offline import</text><text fill="#000000" font-family="sans-serif" font-size="13" lengthAdjust="spacing" textLength="69.291" x="939.656" y="478.1151">(PyMongo)</text></g><?plantuml-src RLDTQzim57tthxZaAQ5nktLxAgMGBkrQrj2Gf8M1NsHBZaNaUusaE8HHs8_OBzmlsPKSfzaO8LY-N-Vet6EllL7mxVdxPFa0lt_-Wgbg3ErhXHwcMgojg64etsEjLhinp5xdq5wEaiHjD3OY5BbAIDffN4CfZ5E9KQK7Js3rkl8WjLM5ruH98WfF5WPVjivJhInSPAXGmjOfEm3XuY59aAI2mGkVGQfM5oh3dSeXjxJh2xjuaXI6jX862w7DJkoXCSANPEjOOm_17mb0D_BU4le0o6D2VomhLKo6AW1XlIwP9OzKuN46hzehS5vuNK2-rKPc6BgLP3a4_pdRM1MaoN1OaVFmuJp-nZ1_Ngn0OJiwuF1m1daxqhaLnUPVDld_sTmBvoVpHn1Da-6KkCz2i_SLuTMdyu-NgJEwpl25nv35T-J3o1xuxIZOZ71DqrkOU2DSXhL0iUOhnMni4Y4HQKZXHIuSyztGNhZg6CYmiIItXNTGa37TZhljv2TGJqypLeXQBPNDyBbHE7bC2weRbZHd__6rCbmtFlrCQQrH0rnVTnwxkOdJZAbxJqnLgmmrVFbQ59L6vZ2aiZHy6WEXIlbbr1iaid-NKEONh3HVqXLMDzx5iX08N8Fn84rlUcDrZnY9UuChU5YjviiC3Ga9o_daj2J_kwHKlgXu1yiLNB3rgUQlHuxXwns_zv8bNK-4pBcrNyYEFvOWboVM58Qhf-M8rnEICZzpjeskct7QdanWXNfqMDmjLna6hspK7afBTJ32gQX9LE68VD0FTDsGzIpeV1_9Z98_?></g></svg>