<svg xmlns="http://www.w3.org/2000/svg" xmlns:xlink="http://www.w3.org/1999/xlink" version="1.1" data-diagram-type="DESCRIPTION" style="width:2322px;height:708px;background:#FFFFFF;" width="2322px" height="708px" viewBox="0 0 2322 708" zoomAndPan="magnify" preserveAspectRatio="none" contentStyleType="text/css"><?plantuml 1.2026.7beta3?><defs/><g><g class="title" data-source-line="1"><text x="946.1728" y="22.9951" fill="#000000" font-size="14" lengthAdjust="spacing" textLength="423.3359" font-weight="700" font-family="sans-serif">KOYASH — Component Diagram (static view, MVP v2)</text></g><!--cluster fe--><g class="cluster" data-qualified-name="fe" id="ent0002" data-source-line="10"><path d="M201.75,43.2969 L458.5234,43.2969 A3.75,3.75 0 0 1 461.0234,45.7969 L468.0234,81.8906 L640.3,81.8906 A2.5,2.5 0 0 1 642.8,84.3906 L642.8,335.7969 A2.5,2.5 0 0 1 640.3,338.2969 L201.75,338.2969 A2.5,2.5 0 0 1 199.25,335.7969 L199.25,45.7969 A2.5,2.5 0 0 1 201.75,43.2969" style="stroke:#000000;stroke-width:1.5;" fill="none"/><line x1="199.25" y1="81.8906" x2="468.0234" y2="81.8906" style="stroke:#000000;stroke-width:1.5;"/><text x="216.1152" y="58.292" fill="#000000" font-size="14" lengthAdjust="spacing" textLength="230.043" font-weight="700" font-family="sans-serif">Frontend — React + Vite SPA</text><text x="203.25" y="74.5889" fill="#000000" font-size="14" lengthAdjust="spacing" textLength="255.7734" font-weight="700" font-family="sans-serif">(static build, served on Railway)</text></g><!--cluster be--><g class="cluster" data-qualified-name="be" id="ent0007" data-source-line="17"><path d="M446.8,362.2969 L660.425,362.2969 A3.75,3.75 0 0 1 662.925,364.7969 L669.925,400.8906 L2013.03,400.8906 A2.5,2.5 0 0 1 2015.53,403.3906 L2015.53,602.7969 A2.5,2.5 0 0 1 2013.03,605.2969 L446.8,605.2969 A2.5,2.5 0 0 1 444.3,602.7969 L444.3,364.7969 A2.5,2.5 0 0 1 446.8,362.2969" style="stroke:#000000;stroke-width:1.5;" fill="none"/><line x1="444.3" y1="400.8906" x2="669.925" y2="400.8906" style="stroke:#000000;stroke-width:1.5;"/><text x="448.3" y="377.292" fill="#000000" font-size="14" lengthAdjust="spacing" textLength="212.625" font-weight="700" font-family="sans-serif">Backend — FastAPI service</text><text x="470.1818" y="393.5889" fill="#000000" font-size="14" lengthAdjust="spacing" textLength="168.8613" font-weight="700" font-family="sans-serif">(Uvicorn, on Railway)</text></g><!--entity landing--><g class="entity" data-qualified-name="fe.landing" id="ent0003" data-source-line="11"><rect x="237.1" y="94.1469" width="115.2041" height="36.2969" fill="#F1F1F1" style="stroke:#181818;stroke-width:0.5;" rx="2.5" ry="2.5"/><text x="247.1" y="117.142" fill="#000000" font-size="14" lengthAdjust="spacing" textLength="95.2041" font-family="sans-serif">Landing page</text></g><!--entity quiz--><g class="entity" data-qualified-name="fe.quiz" id="ent0004" data-source-line="12"><rect x="215.25" y="165.8569" width="158.9063" height="68.8906" fill="#F1F1F1" style="stroke:#181818;stroke-width:0.5;" rx="2.5" ry="2.5"/><text x="225.25" y="188.852" fill="#000000" font-size="14" lengthAdjust="spacing" textLength="138.9063" font-family="sans-serif">Questionnaire flows</text><text x="225.8618" y="205.1489" fill="#000000" font-size="14" lengthAdjust="spacing" textLength="137.6826" font-family="sans-serif">storytelling / short /</text><text x="228.063" y="221.4457" fill="#000000" font-size="14" lengthAdjust="spacing" textLength="133.2803" font-family="sans-serif">skin-type mini-quiz</text></g><!--entity reqb--><g class="entity" data-qualified-name="fe.reqb" id="ent0005" data-source-line="13"><rect x="436.51" y="222.0069" width="190.29" height="52.5938" fill="#F1F1F1" style="stroke:#181818;stroke-width:0.5;" rx="2.5" ry="2.5"/><text x="476.2839" y="245.002" fill="#000000" font-size="14" lengthAdjust="spacing" textLength="110.7422" font-family="sans-serif">Request builder</text><text x="446.51" y="261.2989" fill="#000000" font-size="14" lengthAdjust="spacing" textLength="170.29" font-family="sans-serif">quizConfig.buildRequest</text></g><!--entity results--><g class="entity" data-qualified-name="fe.results" id="ent0006" data-source-line="14"><rect x="237.85" y="270.0069" width="113.6865" height="52.5938" fill="#F1F1F1" style="stroke:#181818;stroke-width:0.5;" rx="2.5" ry="2.5"/><text x="250.7587" y="293.002" fill="#000000" font-size="14" lengthAdjust="spacing" textLength="87.8691" font-family="sans-serif">Results view</text><text x="247.85" y="309.2989" fill="#000000" font-size="14" lengthAdjust="spacing" textLength="93.6865" font-family="sans-serif">cosmetic bag</text></g><!--entity api--><g class="entity" data-qualified-name="be.api" id="ent0008" data-source-line="18"><rect x="460.3" y="417.0069" width="142.7119" height="52.5938" fill="#F1F1F1" style="stroke:#181818;stroke-width:0.5;" rx="2.5" ry="2.5"/><text x="470.3" y="440.002" fill="#000000" font-size="14" lengthAdjust="spacing" textLength="122.7119" font-family="sans-serif">HTTP API + CORS</text><text x="472.1628" y="456.2989" fill="#000000" font-size="14" lengthAdjust="spacing" textLength="118.9863" font-family="sans-serif">main.py · /health</text></g><!--entity recrouter--><g class="entity" data-qualified-name="be.recrouter" id="ent0009" data-source-line="19"><rect x="857.8" y="413.0069" width="151.7832" height="52.5938" fill="#F1F1F1" style="stroke:#181818;stroke-width:0.5;" rx="2.5" ry="2.5"/><text x="867.8" y="436.002" fill="#000000" font-size="14" lengthAdjust="spacing" textLength="131.7832" font-family="sans-serif">recommend router</text><text x="868.5178" y="452.2989" fill="#000000" font-size="14" lengthAdjust="spacing" textLength="130.3477" font-family="sans-serif">POST /recommend</text></g><!--entity prodrouter--><g class="entity" data-qualified-name="be.prodrouter" id="ent0010" data-source-line="20"><rect x="1039.58" y="506.0069" width="128.9512" height="52.5938" fill="#F1F1F1" style="stroke:#181818;stroke-width:0.5;" rx="2.5" ry="2.5"/><text x="1049.58" y="529.002" fill="#000000" font-size="14" lengthAdjust="spacing" textLength="108.9512" font-family="sans-serif">products router</text><text x="1054.6249" y="545.2989" fill="#000000" font-size="14" lengthAdjust="spacing" textLength="98.8613" font-family="sans-serif">GET /products</text></g><!--entity engine--><g class="entity" data-qualified-name="be.engine" id="ent0011" data-source-line="21"><rect x="1198.53" y="466.7069" width="226.7324" height="85.1875" fill="#F1F1F1" style="stroke:#181818;stroke-width:0.5;" rx="2.5" ry="2.5"/><text x="1223.9724" y="489.702" fill="#000000" font-size="14" lengthAdjust="spacing" textLength="175.8477" font-family="sans-serif">Recommendation engine</text><text x="1208.53" y="505.9989" fill="#000000" font-size="14" lengthAdjust="spacing" textLength="206.7324" font-family="sans-serif">hard filters · segment-priority</text><text x="1214.8259" y="522.2957" fill="#000000" font-size="14" lengthAdjust="spacing" textLength="194.1406" font-family="sans-serif">selection · skin preference ·</text><text x="1252.9465" y="538.5926" fill="#000000" font-size="14" lengthAdjust="spacing" textLength="117.8994" font-family="sans-serif">basket assembly</text></g><!--entity just--><g class="entity" data-qualified-name="be.just" id="ent0012" data-source-line="22"><rect x="1486.26" y="413.0069" width="184.2129" height="52.5938" fill="#F1F1F1" style="stroke:#181818;stroke-width:0.5;" rx="2.5" ry="2.5"/><text x="1496.26" y="436.002" fill="#000000" font-size="14" lengthAdjust="spacing" textLength="164.2129" font-family="sans-serif">Rule-based justification</text><text x="1553.969" y="452.2989" fill="#000000" font-size="14" lengthAdjust="spacing" textLength="48.7949" font-family="sans-serif">builder</text></g><!--entity llm--><g class="entity" data-qualified-name="be.llm" id="ent0013" data-source-line="23"><rect x="1826.48" y="419.0069" width="173.0498" height="52.5938" fill="#F1F1F1" style="stroke:#181818;stroke-width:0.5;" rx="2.5" ry="2.5"/><text x="1836.48" y="442.002" fill="#000000" font-size="14" lengthAdjust="spacing" textLength="153.0498" font-family="sans-serif">LLM justification layer</text><text x="1840.9644" y="458.2989" fill="#000000" font-size="14" lengthAdjust="spacing" textLength="144.0811" font-family="sans-serif">«MVP v2 · ADR-001»</text></g><!--entity data--><g class="entity" data-qualified-name="be.data" id="ent0014" data-source-line="24"><rect x="1504.1" y="537.0069" width="148.5361" height="52.5938" fill="#F1F1F1" style="stroke:#181818;stroke-width:0.5;" rx="2.5" ry="2.5"/><text x="1535.8417" y="560.002" fill="#000000" font-size="14" lengthAdjust="spacing" textLength="85.0527" font-family="sans-serif">Data access</text><text x="1514.1" y="576.2989" fill="#000000" font-size="14" lengthAdjust="spacing" textLength="128.5361" font-family="sans-serif">Motor async client</text></g><!--entity cfg--><g class="entity" data-qualified-name="be.cfg" id="ent0015" data-source-line="25"><rect x="1845.82" y="509.0069" width="134.3652" height="52.5938" fill="#F1F1F1" style="stroke:#181818;stroke-width:0.5;" rx="2.5" ry="2.5"/><text x="1855.82" y="532.002" fill="#000000" font-size="14" lengthAdjust="spacing" textLength="114.3652" font-family="sans-serif">Config / settings</text><text x="1863.1481" y="548.2989" fill="#000000" font-size="14" lengthAdjust="spacing" textLength="99.709" font-family="sans-serif">env · pydantic</text></g><!--entity user--><g class="entity" data-qualified-name="user" id="ent0001" data-source-line="8"><ellipse cx="39.6226" cy="162.5069" rx="8" ry="8" fill="#F1F1F1" style="stroke:#181818;stroke-width:0.5;"/><path d="M39.6226,170.5069 L39.6226,197.5069 M26.6226,178.5069 L52.6226,178.5069 M39.6226,197.5069 L26.6226,212.5069 M39.6226,197.5069 L52.6226,212.5069" style="stroke:#181818;stroke-width:0.5;" fill="none"/><text x="8.8267" y="227.002" fill="#000000" font-size="14" lengthAdjust="spacing" textLength="61.5918" font-family="sans-serif">End user</text><text x="6" y="243.2989" fill="#000000" font-size="14" lengthAdjust="spacing" textLength="67.2451" font-family="sans-serif">(browser)</text></g><!--entity mongo--><g class="entity" data-qualified-name="mongo" id="ent0016" data-source-line="28"><path d="M1836.47,631.5069 C1836.47,621.5069 1913.0042,621.5069 1913.0042,621.5069 C1913.0042,621.5069 1989.5384,621.5069 1989.5384,631.5069 L1989.5384,673.1006 C1989.5384,683.1006 1913.0042,683.1006 1913.0042,683.1006 C1913.0042,683.1006 1836.47,683.1006 1836.47,673.1006 L1836.47,631.5069" style="stroke:#181818;stroke-width:0.5;" fill="#F1F1F1"/><path d="M1836.47,631.5069 C1836.47,641.5069 1913.0042,641.5069 1913.0042,641.5069 C1913.0042,641.5069 1989.5384,641.5069 1989.5384,631.5069" style="stroke:#181818;stroke-width:0.5;" fill="none"/><text x="1859.6873" y="658.502" fill="#000000" font-size="14" lengthAdjust="spacing" textLength="106.6338" font-family="sans-serif">MongoDB Atlas</text><text x="1846.47" y="674.7989" fill="#000000" font-size="14" lengthAdjust="spacing" textLength="133.0684" font-family="sans-serif">products collection</text></g><!--entity llmapi--><g class="entity" data-qualified-name="llmapi" id="ent0017" data-source-line="29"><path d="M2152.0267,414.15 C2154.7308,408.8158 2160.029,408.4294 2163.383,413.4363 C2166.5791,407.0964 2170.9536,407.404 2175.299,412.2073 C2179.6955,406.4178 2184.8793,405.7481 2189.0019,412.5064 C2191.911,405.1145 2197.3357,405.2617 2201.9109,410.8494 C2205.6033,404.2264 2210.4108,404.2264 2214.1164,410.8373 C2216.5422,404.9064 2220.352,404.239 2225.0528,408.3627 C2229.9779,401.9703 2233.8009,403.0734 2237.8709,409.2357 C2242.8043,403.5755 2247.4391,405.1177 2249.7843,411.7452 C2253.2851,405.3405 2257.9483,405.9342 2262,411.1668 C2266.1729,405.6794 2271.7485,406.737 2274.9481,412.3065 C2279.5277,407.0414 2284.253,408.583 2287.0877,414.2451 C2291.6532,408.5212 2296.7252,408.6711 2300.1384,415.4481 C2306.845,420.3077 2307.2998,425.6025 2299.646,429.9754 C2307.4211,433.5518 2307.6673,441.7524 2300.9124,446.446 C2307.6816,450.8502 2306.3489,457.9738 2299.6941,461.2751 C2306.8512,465.8501 2307.0581,473.4209 2298.8199,477.148 C2295.6052,482.5867 2291.0899,484.2376 2286.4898,478.7051 C2282.8572,484.1675 2279.5088,484.107 2275.8578,478.7232 C2271.9761,484.9896 2266.7229,486.636 2262.1957,479.3751 C2258.3878,485.0018 2254.5886,486.1665 2249.9223,480.2911 C2246.1782,485.4594 2241.6038,484.0961 2238.8095,479.2384 C2234.5971,486.3243 2229.574,485.478 2224.7986,479.8592 C2220.1032,486.3563 2216.3665,485.7827 2212.4917,479.0933 C2209.5526,485.8218 2204.9092,486.0762 2200.473,480.5632 C2196.3805,486.5892 2191.842,485.6277 2188.1848,480.1002 C2183.9349,485.6448 2178.2141,485.2737 2175.9654,478.1674 C2173.0595,485.0877 2166.8735,484.7763 2163.1288,479.0166 C2158.8013,483.8543 2153.9066,483.9165 2151.3869,477.1823 C2143.5805,474.216 2142.606,468.7136 2147.3661,462.3425 C2136.8825,459.382 2135.0737,454.2525 2141.9101,445.6357 C2136.4774,438.7335 2139.3656,433.002 2147.4939,431.4302 C2141.4327,424.9394 2141.3615,416.2532 2152.0267,414.15" style="stroke:#181818;stroke-width:0.5;" fill="#F1F1F1"/><text x="2179.2888" y="433.852" fill="#000000" font-size="14" lengthAdjust="spacing" textLength="90.7676" font-family="sans-serif">LLM provider</text><text x="2157.53" y="450.1489" fill="#000000" font-size="14" lengthAdjust="spacing" textLength="134.2852" font-family="sans-serif">OpenAI-compatible</text><text x="2184.1081" y="466.4457" fill="#000000" font-size="14" lengthAdjust="spacing" textLength="81.1289" font-family="sans-serif">gpt-4o-mini</text></g><!--entity seed--><g class="entity" data-qualified-name="seed" id="ent0018" data-source-line="30"><rect x="1503.27" y="627.0069" width="150.2041" height="52.5938" fill="#F1F1F1" style="stroke:#181818;stroke-width:0.5;" rx="2.5" ry="2.5"/><text x="1517.3511" y="650.002" fill="#000000" font-size="14" lengthAdjust="spacing" textLength="122.042" font-family="sans-serif">Data seed scripts</text><text x="1513.27" y="666.2989" fill="#000000" font-size="14" lengthAdjust="spacing" textLength="130.2041" font-family="sans-serif">db/ · offline import</text></g><!--link user to landing--><g class="link" data-entity-1="ent0001" data-entity-2="ent0003" id="lnk19" data-source-line="32" data-link-type="dependency"><path d="M73.63,186.6869 C83.14,182.8869 93.57,178.8269 103.25,175.2969 C147.74,159.0769 193.9474,143.8293 231.9574,131.6793" style="stroke:#181818;stroke-width:1;" fill="none" id="user-to-landing"/><polygon points="236.72,130.1569,226.9294,129.0871,231.9574,131.6793,229.3652,136.7072,236.72,130.1569" fill="#181818" style="stroke:#181818;stroke-width:1;stroke-linejoin:miter;stroke-miterlimit:10;"/><text x="122.75" y="144.3638" fill="#000000" font-size="13" lengthAdjust="spacing" textLength="41.7485" font-family="sans-serif">HTTPS</text></g><!--link user to quiz--><g class="link" data-entity-1="ent0001" data-entity-2="ent0004" id="lnk20" data-source-line="33" data-link-type="dependency"><path d="M73.71,200.2969 C109.35,200.2969 162.33,200.2969 209.83,200.2969" style="stroke:#181818;stroke-width:1;" fill="none" id="user-to-quiz"/><polygon points="214.83,200.2969,205.83,196.2969,209.83,200.2969,205.83,204.2969,214.83,200.2969" fill="#181818" style="stroke:#181818;stroke-width:1;stroke-linejoin:miter;stroke-miterlimit:10;"/><text x="122.75" y="196.3638" fill="#000000" font-size="13" lengthAdjust="spacing" textLength="41.7485" font-family="sans-serif">HTTPS</text></g><!--link quiz to reqb--><g class="link" data-entity-1="ent0004" data-entity-2="ent0005" id="lnk21" data-source-line="34" data-link-type="dependency"><path d="M374.59,216.4169 C394.32,220.4469 410.7807,223.8183 431.1907,227.9783" style="stroke:#181818;stroke-width:1;" fill="none" id="quiz-to-reqb"/><polygon points="436.09,228.9769,428.0702,223.26,431.1907,227.9783,426.4725,231.0989,436.09,228.9769" fill="#181818" style="stroke:#181818;stroke-width:1;stroke-linejoin:miter;stroke-miterlimit:10;"/></g><!--link reqb to recrouter--><g class="link" data-entity-1="ent0005" data-entity-2="ent0009" id="lnk22" data-source-line="35" data-link-type="dependency"><path d="M588.7,275.0569 C664.92,311.4569 795.9879,374.0327 872.1879,410.4127" style="stroke:#181818;stroke-width:1;" fill="none" id="reqb-to-recrouter"/><polygon points="876.7,412.5669,870.3015,405.0796,872.1879,410.4127,866.8548,412.299,876.7,412.5669" fill="#181818" style="stroke:#181818;stroke-width:1;stroke-linejoin:miter;stroke-miterlimit:10;"/><text x="722.6037" y="291.3638" fill="#000000" font-size="13" lengthAdjust="spacing" textLength="41.7485" font-family="sans-serif">HTTPS</text><text x="659.8" y="306.4966" fill="#000000" font-size="13" lengthAdjust="spacing" textLength="167.356" font-family="sans-serif">POST /recommend (JSON)</text></g><!--link recrouter to results--><g class="link" data-entity-1="ent0009" data-entity-2="ent0006" id="lnk23" data-source-line="36" data-link-type="dependency"><path d="M878.52,466.0769 C782.91,509.2469 580.61,581.8969 435.15,504.2969 C362.27,465.4169 322.4294,374.3899 305.8594,327.6099" style="stroke:#181818;stroke-width:1;" fill="none" id="recrouter-to-results"/><polygon points="304.19,322.8969,303.4245,332.7159,305.8594,327.6099,310.9654,330.0449,304.19,322.8969" fill="#181818" style="stroke:#181818;stroke-width:1;stroke-linejoin:miter;stroke-miterlimit:10;"/><text x="436.15" y="500.3638" fill="#000000" font-size="13" lengthAdjust="spacing" textLength="191.2866" font-family="sans-serif">RecommendResponse (JSON)</text></g><!--link results to user--><g class="link" data-entity-1="ent0006" data-entity-2="ent0001" id="lnk24" data-source-line="37" data-link-type="dependency"><path d="M237.74,275.8169 C199.72,261.8169 148.35,242.7069 103.25,225.2969 C93.63,221.5869 87.8731,219.3321 78.3631,215.5321" style="stroke:#181818;stroke-width:1;" fill="none" id="results-to-user"/><polygon points="73.72,213.6769,80.5933,220.7308,78.3631,215.5321,83.5617,213.3019,73.72,213.6769" fill="#181818" style="stroke:#181818;stroke-width:1;stroke-linejoin:miter;stroke-miterlimit:10;"/><text x="104.25" y="221.3638" fill="#000000" font-size="13" lengthAdjust="spacing" textLength="78.5522" font-family="sans-serif">renders bag</text></g><!--link api to recrouter--><g class="link" data-entity-1="ent0008" data-entity-2="ent0009" id="lnk25" data-source-line="39" data-link-type="dependency"><path d="M603.25,442.5969 C674.58,441.8769 779.3903,440.8369 852.3603,440.1069" style="stroke:#181818;stroke-width:1;stroke-dasharray:7,7;" fill="none" id="api-to-recrouter"/><polygon points="857.36,440.0569,848.3204,436.1471,852.3603,440.1069,848.4005,444.1467,857.36,440.0569" fill="#181818" style="stroke:#181818;stroke-width:1;stroke-linejoin:miter;stroke-miterlimit:10;"/></g><!--link api to prodrouter--><g class="link" data-entity-1="ent0008" data-entity-2="ent0010" id="lnk26" data-source-line="40" data-link-type="dependency"><path d="M603.45,454.3469 C715.49,471.8269 926.9697,504.8262 1034.4097,521.5862" style="stroke:#181818;stroke-width:1;stroke-dasharray:7,7;" fill="none" id="api-to-prodrouter"/><polygon points="1039.35,522.3569,1031.0741,517.0175,1034.4097,521.5862,1029.841,524.9219,1039.35,522.3569" fill="#181818" style="stroke:#181818;stroke-width:1;stroke-linejoin:miter;stroke-miterlimit:10;"/></g><!--link recrouter to engine--><g class="link" data-entity-1="ent0009" data-entity-2="ent0011" id="lnk27" data-source-line="41" data-link-type="dependency"><path d="M1009.92,453.2969 C1063.84,463.3269 1132.5045,476.1016 1193.4045,487.4416" style="stroke:#181818;stroke-width:1;" fill="none" id="recrouter-to-engine"/><polygon points="1198.32,488.3569,1190.2043,482.7769,1193.4045,487.4416,1188.7398,490.6417,1198.32,488.3569" fill="#181818" style="stroke:#181818;stroke-width:1;stroke-linejoin:miter;stroke-miterlimit:10;"/></g><!--link engine to just--><g class="link" data-entity-1="ent0011" data-entity-2="ent0012" id="lnk28" data-source-line="42" data-link-type="dependency"><path d="M1425.44,479.5169 C1445.69,474.1569 1461.7262,469.9052 1481.2762,464.7352" style="stroke:#181818;stroke-width:1;" fill="none" id="engine-to-just"/><polygon points="1486.11,463.4569,1476.3865,461.8908,1481.2762,464.7352,1478.4317,469.6249,1486.11,463.4569" fill="#181818" style="stroke:#181818;stroke-width:1;stroke-linejoin:miter;stroke-miterlimit:10;"/></g><!--link just to llm--><g class="link" data-entity-1="ent0012" data-entity-2="ent0013" id="lnk29" data-source-line="43" data-link-type="dependency"><path d="M1670.7,440.9469 C1719.17,441.8169 1773.3808,442.7966 1821.0208,443.6566" style="stroke:#181818;stroke-width:1;stroke-dasharray:7,7;" fill="none" id="just-to-llm"/><polygon points="1826.02,443.7469,1817.0937,439.5851,1821.0208,443.6566,1816.9493,447.5838,1826.02,443.7469" fill="#181818" style="stroke:#181818;stroke-width:1;stroke-linejoin:miter;stroke-miterlimit:10;"/><text x="1714.5464" y="423.3638" fill="#000000" font-size="13" lengthAdjust="spacing" textLength="68.4658" font-family="sans-serif">«planned»</text><text x="1713.48" y="438.4966" fill="#000000" font-size="13" lengthAdjust="spacing" textLength="70.5986" font-family="sans-serif">enrich text</text></g><!--link engine to data--><g class="link" data-entity-1="ent0011" data-entity-2="ent0014" id="lnk30" data-source-line="44" data-link-type="dependency"><path d="M1425.44,532.2769 C1451.87,537.6769 1474.4813,542.2857 1498.7013,547.2357" style="stroke:#181818;stroke-width:1;" fill="none" id="engine-to-data"/><polygon points="1503.6,548.2369,1495.5832,542.5157,1498.7013,547.2357,1493.9813,550.3537,1503.6,548.2369" fill="#181818" style="stroke:#181818;stroke-width:1;stroke-linejoin:miter;stroke-miterlimit:10;"/></g><!--link prodrouter to data--><g class="link" data-entity-1="ent0010" data-entity-2="ent0014" id="lnk31" data-source-line="45" data-link-type="dependency"><path d="M1162.88,559.0769 C1174.46,563.3169 1186.7,567.0469 1198.53,569.2969 C1303.04,589.2369 1421.7591,582.1153 1498.6591,573.7853" style="stroke:#181818;stroke-width:1;" fill="none" id="prodrouter-to-data"/><polygon points="1503.63,573.2469,1494.2516,570.2394,1498.6591,573.7853,1495.1131,578.1928,1503.63,573.2469" fill="#181818" style="stroke:#181818;stroke-width:1;stroke-linejoin:miter;stroke-miterlimit:10;"/></g><!--link data to mongo--><g class="link" data-entity-1="ent0014" data-entity-2="ent0016" id="lnk32" data-source-line="46" data-link-type="dependency"><path d="M1653.08,579.5169 C1695.27,589.1469 1749.07,602.0469 1796.48,615.2969 C1809.36,618.8969 1818.1781,621.4941 1831.3481,625.6141" style="stroke:#181818;stroke-width:1;" fill="none" id="data-to-mongo"/><polygon points="1836.12,627.1069,1828.7247,620.6022,1831.3481,625.6141,1826.3362,628.2374,1836.12,627.1069" fill="#181818" style="stroke:#181818;stroke-width:1;stroke-linejoin:miter;stroke-miterlimit:10;"/><text x="1701.48" y="572.3638" fill="#000000" font-size="13" lengthAdjust="spacing" textLength="94.2627" font-family="sans-serif">MongoDB wire</text><text x="1703.0987" y="587.4966" fill="#000000" font-size="13" lengthAdjust="spacing" textLength="91.0254" font-family="sans-serif">protocol (TLS)</text></g><!--link llm to llmapi--><g class="link" data-entity-1="ent0013" data-entity-2="ent0017" id="lnk33" data-source-line="47" data-link-type="dependency"><path d="M1999.85,445.2969 C2044.33,445.2969 2093.36,445.2969 2137.19,445.2969" style="stroke:#181818;stroke-width:1;" fill="none" id="llm-to-llmapi"/><polygon points="2142.19,445.2969,2133.19,441.2969,2137.19,445.2969,2133.19,449.2969,2142.19,445.2969" fill="#181818" style="stroke:#181818;stroke-width:1;stroke-linejoin:miter;stroke-miterlimit:10;"/><text x="2032.53" y="441.3638" fill="#000000" font-size="13" lengthAdjust="spacing" textLength="79.3203" font-family="sans-serif">HTTPS REST</text></g><!--link recrouter to cfg--><g class="link" data-entity-1="ent0009" data-entity-2="ent0015" id="lnk34" data-source-line="48" data-link-type="dependency"><path d="M1009.83,429.7569 C1107.48,419.8369 1282.4,410.6169 1425.26,449.2969 C1455.22,457.4169 1456.75,473.6869 1486.26,483.2969 C1551.4,504.5269 1737.8559,521.7083 1840.3859,529.9083" style="stroke:#181818;stroke-width:1;stroke-dasharray:7,7;" fill="none" id="recrouter-to-cfg"/><polygon points="1845.37,530.3069,1836.7175,525.6021,1840.3859,529.9083,1836.0798,533.5766,1845.37,530.3069" fill="#181818" style="stroke:#181818;stroke-width:1;stroke-linejoin:miter;stroke-miterlimit:10;"/></g><!--link data to cfg--><g class="link" data-entity-1="ent0014" data-entity-2="ent0015" id="lnk35" data-source-line="49" data-link-type="dependency"><path d="M1653.09,548.0769 C1668.67,545.3669 1685.07,542.9069 1700.48,541.2969 C1748.89,536.2469 1798.8501,534.8408 1840.6201,534.6408" style="stroke:#181818;stroke-width:1;stroke-dasharray:7,7;" fill="none" id="data-to-cfg"/><polygon points="1845.62,534.6169,1836.601,530.66,1840.6201,534.6408,1836.6393,538.6599,1845.62,534.6169" fill="#181818" style="stroke:#181818;stroke-width:1;stroke-linejoin:miter;stroke-miterlimit:10;"/></g><!--link seed to mongo--><g class="link" data-entity-1="ent0018" data-entity-2="ent0016" id="lnk36" data-source-line="50" data-link-type="dependency"><path d="M1653.6,653.0769 C1707.89,652.9169 1776.28,652.7124 1830.98,652.5424" style="stroke:#181818;stroke-width:1;" fill="none" id="seed-to-mongo"/><polygon points="1835.98,652.5269,1826.9676,648.5549,1830.98,652.5424,1826.9925,656.5548,1835.98,652.5269" fill="#181818" style="stroke:#181818;stroke-width:1;stroke-linejoin:miter;stroke-miterlimit:10;"/><text x="1704.98" y="633.3638" fill="#000000" font-size="13" lengthAdjust="spacing" textLength="87.623" font-family="sans-serif">offline import</text><text x="1714.146" y="648.4966" fill="#000000" font-size="13" lengthAdjust="spacing" textLength="69.291" font-family="sans-serif">(PyMongo)</text></g><?plantuml-src PLJDRkCs4BxhAGO-nTWesHOz1O41RvBjRflKhkqkKDGzqDH8PaEH2adRgnO5-X1zbzxxA7sIpemasy5Uz3FylldzXiaaY_3zxEVfyWFyzzVVSEVhnZjq2UwDgeAguI8cbOo6lS739JnzciF-wt6MnMVZ6iK0FL2MgILd0NLIhh9u1ebRLVY3SHMKoiRpam9BjRDfXP_Jr9hArHnQqmD3Ph5Ca3m4KsqJ58Oz6--oJEda0umUN06xY67jBZR17-XhF08LnPPbZTBFga8OlG-Ut16MwriWaU4DV389OJcV4hUlRxCpjhW4ukwn0EzWeOmzgBRpMIByaG7yygXSmNKqvFfNFh2TWSz-t67a19sYLA6qbDBQHKgrJMWjiwwf4puak2OxjI1FRODG6sVobvtvNVpn1pjRu0kxwzBY6ldWphlIL5TYwm522lYowKYHcXbbLckdVQnHIbDL3vFZxC-pxhoZZw4vxrLCq_b7wO7HIBtvYTu-kCil-h7f-_5XjPe3Szx0tMonNBjQ6NVLjF3lFt2zHMNJLaAhnZ2SHkZhckC5lqjSrdosNC7rqTxdgRjZfZJ15pjDHGsCRn-8C5W5ppydmcBmfNWOWAuoZchPgb10QIoX8cSNiMAnvKqmFfZKqaZGTWgJOveFESOI0pgDP5gxZOhFc2XYn7fZMudTkPUuEuivGKWzl-r82ANHaW7nkXaAdez4I8zFhs6af9RBkxtjTeoJcDulyhTllvfCEgdPcfdtAYbGMcCaUJrvNWKLMwT1MqC52PHgLupj1CEwmvH8WSH0jsVNJLieH-8Gk2uh5WMpk00OFNbN-VjtC4rM4USu0-rjtoDHGSsmJ5k_As345H5mRqIkimRTz6FEbmELjx4qWQf9-JS-PxsF-dfO5iVx0qPIMaJgODJ1D8b25vjhJjUN9MqGWY5iI49dN9RniaEUJuP5X1jWJIvF1xmuHwlyi5LMXX_zNw-u0VY5CE7Yk-NiXt5sGdQyRk5kuAWwsa4gXvfu97GGXajEDyHo1QkGzf8kiyR0rTLP2aVBcQnVH-qrrxt48ghYXn2fiHJbzhQXdZWi9XEUUZ1w2udksNEUwEGKvsJZX_p9YCdRe8W3tMqYYEH9372nUboECmueCv293Zs4nSDoTPOwfyPA4z_3ZqpxFD3hITCTD6ybzlX_?></g></svg>